<svg width="21" height="13" viewBox="0 0 21 13" fill="none" xmlns="http://www.w3.org/2000/svg">
<path d="M0 3.29851H1.22636L3.67907 7.75747H3.7827L6.23542 3.29851H7.46177L4.26634 8.91419V12.8508H3.19544V8.91419L0 3.29851Z" fill="#276229"/>
<path d="M11.6417 7.53359V3.29851H12.6608V10.4627H11.6417V9.25001H11.5727C11.4172 9.61381 11.1754 9.9232 10.8472 10.1782C10.519 10.43 10.1045 10.556 9.60358 10.556C9.18903 10.556 8.82055 10.458 8.49813 10.2621C8.17571 10.0631 7.92238 9.76462 7.73813 9.36661C7.55389 8.96549 7.46177 8.46021 7.46177 7.85075V3.29851H8.48086V7.77612C8.48086 8.29851 8.61616 8.71518 8.88676 9.02613C9.16025 9.33707 9.50858 9.49255 9.93176 9.49255C10.1851 9.49255 10.4427 9.42258 10.7047 9.28266C10.9696 9.14273 11.1912 8.92818 11.3697 8.639C11.5511 8.34982 11.6417 7.98135 11.6417 7.53359Z" fill="#276229"/>
<path d="M11.6417 10.4627V3.29851L12.6263 3.29851V4.3806H12.6954C12.8163 4.02613 13.0351 3.7385 13.3517 3.51773C13.6684 3.29696 14.0254 3.18657 14.4226 3.18657C14.4975 3.18657 14.591 3.18813 14.7033 3.19124C14.8156 3.19435 14.9005 3.19901 14.9581 3.20523L15.0219 4.3806C14.9874 4.37128 14.8444 4.30131 14.7206 4.28266C14.5997 4.26089 14.4716 4.25001 14.3363 4.25001C14.0139 4.25001 13.726 4.32308 13.4726 4.46922C13.2222 4.61226 13.0236 4.81126 12.8767 5.06624C12.7328 5.3181 12.6608 5.60573 12.6608 5.92911L12.6608 10.4627H11.6417Z" fill="#276229"/>
<path d="M15.4786 10.1782L14.9279 3.18657H15.9469V10.3507L15.4786 10.1782ZM15.446 1.99254C15.2474 1.99254 15.0761 1.91947 14.9322 1.77332C14.7911 1.62718 14.7206 1.45149 14.7206 1.24627C14.7206 1.04104 14.7911 0.865361 14.9322 0.719216C15.0761 0.573072 15.2474 0.5 15.446 0.5C15.6447 0.5 15.8145 0.573072 15.9556 0.719216C16.0995 0.865361 16.1715 1.04104 16.1715 1.24627C16.1715 1.45149 16.0995 1.62718 15.9556 1.77332C15.8145 1.91947 15.6447 1.99254 15.446 1.99254Z" fill="#276229"/>
<path d="M18.3918 12.8508C17.77 12.8508 17.2346 12.6922 16.7855 12.375C16.3364 12.0578 15.9909 11.621 15.7491 11.0644C15.5073 10.5078 15.3864 9.8719 15.3864 9.15672C15.3864 8.42911 15.5102 7.78701 15.7578 7.23042C16.0082 6.67071 16.3565 6.23384 16.8028 5.91978C17.2518 5.60262 17.7758 5.44404 18.3746 5.44404C18.8409 5.44404 19.2612 5.53732 19.6355 5.72389C20.0097 5.91045 20.3163 6.17165 20.5552 6.50747C20.7942 6.84329 20.919 7.23508 20.9766 7.68284H19.9809C19.9032 7.35635 19.7305 7.06717 19.4627 6.8153C19.1979 6.56033 18.8409 6.43284 18.3918 6.43284C17.9946 6.43284 17.6462 6.54478 17.3468 6.76866C17.0503 6.98943 16.8186 7.30193 16.6516 7.70616C16.4875 8.10728 16.4055 8.57837 16.4055 9.11941C16.4055 9.67289 16.4861 10.1549 16.6473 10.5653C16.8114 10.9758 17.0417 11.2945 17.3382 11.5215C17.6376 11.7485 17.9888 11.8619 18.3918 11.8619C18.6567 11.8619 18.8971 11.8122 19.113 11.7127C19.3289 11.6132 19.5117 11.4702 19.6614 11.2836C19.8111 11.097 19.9176 10.8731 19.9809 10.6119H21C20.9424 11.0348 20.7999 11.4157 20.5725 11.7547C20.348 12.0905 20.05 12.3579 19.6786 12.5569C19.3102 12.7528 18.8812 12.8508 18.3918 12.8508Z" fill="#276229"/>
</svg>
